<?xml version="1.0" standalone="no"?><!DOCTYPE svg PUBLIC "-//W3C//DTD SVG 1.1//EN" "http://www.w3.org/Graphics/SVG/1.1/DTD/svg11.dtd"><svg t="1684418930431" class="icon" viewBox="0 0 1024 1024" version="1.1" xmlns="http://www.w3.org/2000/svg" p-id="2550" xmlns:xlink="http://www.w3.org/1999/xlink" width="200" height="200"><path d="M469.718 151L0.012 534.992v341.32l1023.976-127.996v-341.32C981.332 99.002 469.718 151 469.718 151z" fill="#FFCE54" p-id="2551"></path><path d="M469.718 151L0.012 534.992l1023.976-127.996C981.332 99.002 469.718 151 469.718 151z" fill="#F6BB42" p-id="2552"></path><path d="M427.064 193.672s470.146-47.78 546.612 219.622l50.312-6.296C981.332 99.002 469.718 151 469.718 151L0.012 534.992l11.248-1.406L427.064 193.672zM341.348 684.318c0 35.374-28.656 63.998-64 63.998-35.342 0-63.998-28.624-63.998-63.998 0-35.344 28.656-63.998 63.998-63.998 35.344 0 64 28.654 64 63.998zM853.336 534.992c0 47.14-38.218 85.328-85.342 85.328s-85.342-38.188-85.342-85.328c0-47.124 38.218-85.326 85.342-85.326s85.342 38.204 85.342 85.326z" opacity=".1" p-id="2553"></path><path d="M490.656 385.668c-35.342 0-63.998-23.876-63.998-53.328 0-29.468 28.656-53.342 63.998-53.342 35.344 0 63.998 23.876 63.998 53.342 0 29.452-28.654 53.328-63.998 53.328zM767.994 342.998c0 11.78-9.562 21.342-21.344 21.342s-21.31-9.562-21.31-21.342c0-11.782 9.53-21.328 21.31-21.328s21.344 9.546 21.344 21.328zM597.34 215c0 11.782-9.56 21.342-21.342 21.342s-21.344-9.562-21.344-21.342 9.562-21.328 21.344-21.328 21.342 9.546 21.342 21.328zM341.348 428.338c0 11.782-9.562 21.328-21.344 21.328s-21.344-9.546-21.344-21.328c0-11.78 9.562-21.342 21.344-21.342s21.344 9.562 21.344 21.342zM64.01 689.662c0 11.78-9.562 21.342-21.344 21.342s-21.312-9.562-21.312-21.342c0-11.782 9.532-21.344 21.312-21.344s21.344 9.562 21.344 21.344zM597.34 684.318c0 11.78-9.56 21.342-21.342 21.342s-21.344-9.562-21.344-21.342c0-11.782 9.562-21.312 21.344-21.312s21.342 9.532 21.342 21.312zM938.646 684.318c0 11.78-9.532 21.342-21.312 21.342-11.78 0-21.342-9.562-21.342-21.342 0-11.782 9.562-21.312 21.342-21.312a21.3 21.3 0 0 1 21.312 21.312zM426.658 599.008c0 11.782-9.532 21.312-21.312 21.312s-21.344-9.532-21.344-21.312 9.562-21.344 21.344-21.344 21.312 9.562 21.312 21.344zM973.676 413.292v341.336l50.312-6.312v-341.32z" opacity=".1" p-id="2554"></path></svg>