<?xml version="1.0" standalone="no"?>
<!DOCTYPE svg PUBLIC "-//W3C//DTD SVG 20010904//EN"
 "http://www.w3.org/TR/2001/REC-SVG-20010904/DTD/svg10.dtd">
<svg version="1.0" xmlns="http://www.w3.org/2000/svg"
 width="700.000000pt" height="700.000000pt" viewBox="0 0 700.000000 700.000000"
 preserveAspectRatio="xMidYMid meet">
<metadata>
Created by potrace 1.14, written by Peter Selinger 2001-2017
</metadata>
<g transform="translate(0.000000,700.000000) scale(0.100000,-0.100000)"
fill="#000000" stroke="none">
<path d="M3419 5986 c-2 -2 -50 -6 -107 -10 l-103 -6 -93 -77 c-51 -43 -135
-112 -186 -153 -51 -41 -149 -122 -219 -179 -69 -57 -144 -118 -166 -136 -22
-18 -170 -139 -330 -269 -159 -131 -306 -250 -325 -266 -275 -224 -402 -328
-435 -355 -22 -19 -121 -100 -220 -180 -229 -188 -241 -197 -355 -291 -53 -44
-272 -223 -488 -399 l-392 -320 0 -1168 0 -1169 53 7 c65 8 91 12 142 19 22 3
63 8 90 11 51 6 103 12 165 20 19 3 55 7 80 10 25 4 56 8 70 10 14 2 52 7 85
10 64 7 87 10 150 19 39 6 61 8 180 22 33 3 68 8 79 10 10 2 44 6 75 9 57 6
99 11 161 20 87 12 108 14 155 20 28 3 84 10 125 15 41 5 98 12 125 15 28 4
61 8 75 10 14 2 48 7 75 10 28 3 86 10 130 16 44 5 96 12 115 14 68 8 205 26
230 30 14 2 54 7 90 10 36 4 72 8 80 10 8 1 44 6 80 10 75 9 91 11 145 18 22
3 65 9 95 13 30 3 62 8 70 9 8 1 44 6 80 10 94 10 122 14 255 30 66 9 136 17
155 20 19 2 87 11 150 19 63 9 138 18 165 21 28 3 59 7 70 9 11 2 52 7 90 11
39 4 77 9 86 10 9 2 40 6 70 10 63 7 203 24 239 30 14 2 52 6 85 10 33 4 74 8
90 11 17 2 140 18 275 34 135 17 259 33 275 35 17 2 55 6 85 10 30 3 69 7 85
10 51 8 97 14 231 30 71 8 143 17 159 20 29 4 95 12 165 20 19 2 87 11 150 19
63 8 140 18 170 21 30 3 82 10 115 15 33 5 85 11 115 14 30 4 66 8 80 10 14 3
52 7 85 11 67 7 118 14 155 20 14 3 52 7 85 10 33 4 71 8 85 10 14 2 48 6 75
10 28 3 66 8 85 11 19 3 43 5 53 5 17 0 17 56 14 1212 l-3 1212 -26 96 c-35
129 -71 227 -119 328 -293 607 -966 1008 -1975 1175 -173 29 -198 33 -279 41
-33 4 -70 8 -83 10 -13 2 -67 7 -120 10 -53 4 -108 9 -122 12 -30 6 -844 15
-851 9z"/>
</g>
</svg>
